<svg xmlns="http://www.w3.org/2000/svg" _ngcontent-ng-c2519858617="" viewBox="0 0 64 64" fill="none" width="64" height="64"><g _ngcontent-ng-c2519858617="" clip-path="url(#clip0_6733_84759)"><path _ngcontent-ng-c2519858617="" d="M54.5521 27.9704V28.0296C54.5521 28.4638 54.5521 28.8979 54.5521 29.332C54.5521 29.7662 54.5521 29.9833 54.483 30.3187C54.414 31.0686 54.3153 31.8283 54.1969 32.5782C54.1643 32.8305 54.1182 33.0808 54.0588 33.3281C53.9996 33.5748 53.9502 33.8214 53.891 34.0681C53.7858 34.5614 53.6575 35.0548 53.5062 35.5481L53.2891 36.2684C53.2203 36.5161 53.1379 36.7598 53.0425 36.9985C52.7013 37.9575 52.306 38.8964 51.8585 39.8106C51.1881 41.1878 50.406 42.5078 49.52 43.7573C48.3344 45.4078 46.9675 46.9203 45.445 48.2664C45.0602 48.6019 44.6754 48.9275 44.2709 49.2531C41.8694 51.1465 39.1635 52.6178 36.2689 53.6044C35.7854 53.7721 35.2822 53.9201 34.8086 54.0582C34.335 54.1964 33.822 54.3148 33.3286 54.4233L32.6083 54.5713C32.3814 54.6305 32.1347 54.67 31.8881 54.7094L31.2566 54.7884C30.9902 54.8377 30.7238 54.8673 30.4376 54.8969L29.9542 54.9463L28.9675 55.0153C28.5235 55.0153 28.0696 55.0153 27.6157 55.0153H27.5368C27.0829 55.0153 26.6291 55.0153 26.185 55.0153C25.741 55.0153 25.4944 55.0153 25.1984 54.9463L24.6853 54.8969L23.6295 54.7588H23.4717C23.0244 54.693 22.5902 54.6141 22.1693 54.522L21.2812 54.3246L30.4574 31.7297H37.1076L43.6394 6.34241C45.9624 8.06311 47.9944 10.1451 49.6582 12.5092C50.112 13.1505 50.5363 13.8214 50.931 14.4825C51.0691 14.7193 51.1875 14.9463 51.3158 15.1732C51.4441 15.4001 51.5625 15.6468 51.6809 15.8737C51.7993 16.1007 51.9177 16.3473 52.0163 16.5841C52.5535 17.7085 53.0022 18.873 53.3582 20.0671C53.4569 20.373 53.5555 20.6789 53.6345 20.9946L53.7529 21.4386C53.8318 21.7642 53.9108 22.0997 53.9798 22.4253C54.0489 22.7509 54.1081 23.0666 54.1574 23.412C54.2068 23.7573 54.2265 23.8461 54.2561 24.073C54.2857 24.3 54.3449 24.6552 54.3745 24.9709C54.4041 25.2867 54.3745 25.3557 54.4337 25.5333C54.4385 25.5627 54.4385 25.5927 54.4337 25.6221C54.4337 25.9576 54.4929 26.2832 54.5028 26.6088C54.5126 26.9344 54.5521 27.5166 54.5521 27.9704Z" fill="#0FB694"/><path _ngcontent-ng-c2519858617="" d="M43.6382 6.34234L21.0531 30.0819H11.2455L4.12167 41.4287C2.49597 38.6274 1.38958 35.5556 0.855758 32.3611C0.855758 32.0749 0.766957 31.7691 0.72749 31.4829C0.688022 31.1968 0.658422 30.9008 0.628822 30.5752C0.599221 30.2496 0.559754 29.7859 0.54002 29.3714C0.520287 28.957 0.54002 28.4736 0.54002 28.0197V27.9704C0.54002 27.5165 0.54002 27.0626 0.54002 26.6087C0.54002 26.1549 0.589354 25.8095 0.628822 25.4149C0.628822 25.2866 0.628822 25.1583 0.628822 25.0498C0.64924 24.7357 0.685464 24.4229 0.737356 24.1124C0.737356 23.994 0.737356 23.8756 0.737356 23.7572C0.806424 23.3527 0.875492 22.9482 0.964293 22.5535C1.05309 22.1588 1.22083 21.6951 1.3787 21.3103V21.0932C1.47737 20.7183 1.5859 20.3335 1.7043 19.9684C1.8227 19.6033 1.95097 19.2284 2.07924 18.8633C2.20751 18.4982 2.44431 17.8766 2.66138 17.3636C2.76992 17.107 2.88832 16.8505 3.00672 16.6038C3.40534 15.7515 3.85 14.9214 4.33874 14.1174C4.46701 13.9102 4.59527 13.703 4.73341 13.4958C5.04915 13.0024 5.37475 12.5091 5.72009 12.0552L6.07529 11.5915C6.20356 11.404 6.35156 11.2363 6.47983 11.0587C6.6081 10.8811 6.7857 10.6936 6.94357 10.5061L7.15078 10.2693L7.68358 9.66745C8.85983 8.4023 10.1514 7.24948 11.5415 6.22394L12.3802 5.62206L12.5972 5.49379C12.8439 5.31619 13.0906 5.15832 13.357 5.00045C13.6234 4.84259 13.8997 4.67485 14.1759 4.51698C14.4522 4.35911 14.7877 4.17164 15.0935 4.01378C17.1189 2.95825 19.2709 2.16578 21.4971 1.65561L22.6219 1.42867C23.3718 1.28067 24.1315 1.182 24.9011 1.10307C25.2892 1.0636 25.6708 1.02085 26.0457 0.974801H26.1246C26.539 0.974801 26.9534 0.974801 27.3777 0.974801H27.7526C28.0419 0.959897 28.3317 0.959897 28.6209 0.974801C34.0361 1.29549 39.2466 3.15787 43.6382 6.34234Z" fill="#0FB694"/></g><defs _ngcontent-ng-c2519858617=""><clipPath _ngcontent-ng-c2519858617="" id="clip0_6733_84759"><rect _ngcontent-ng-c2519858617="" width="140" height="54.0503" fill="white" transform="translate(0.5 0.974854)"/></clipPath></defs></svg>